<svg xmlns="http://www.w3.org/2000/svg" version="1.1" xmlns:xlink="http://www.w3.org/1999/xlink" width="512" height="512" x="0" y="0" viewBox="0 0 512 512" style="enable-background:new 0 0 512 512" xml:space="preserve" class=""><g><path d="m175.187 474.195 13.853-18.702a32.323 32.323 0 0 0 6.35-19.241v-46.911M316.61 389.341v46.911a32.328 32.328 0 0 0 6.35 19.241l13.853 18.702M374.189 504.5H137.811a8.081 8.081 0 0 1-8.081-8.081v-14.142a8.081 8.081 0 0 1 8.081-8.081h236.378a8.081 8.081 0 0 1 8.081 8.081v14.142a8.081 8.081 0 0 1-8.081 8.081zM7.5 277.39V64.07c0-8.93 7.23-16.16 16.16-16.16h40.41M447.93 47.91h40.41c8.93 0 16.16 7.23 16.16 16.16v309.11c0 8.93-7.23 16.16-16.16 16.16H23.66c-8.93 0-16.16-7.23-16.16-16.16v-60.79" style="stroke-width:15;stroke-linecap:round;stroke-linejoin:round;stroke-miterlimit:10;" fill="none" stroke="#f76407" stroke-width="15" stroke-linecap="round" stroke-linejoin="round" stroke-miterlimit="10" data-original="#000000" opacity="1" class=""></path><path d="M478.24 149.06v207.96c0 3.34-2.72 6.06-6.07 6.06H39.83c-3.35 0-6.07-2.72-6.07-6.06V80.23c0-3.34 2.72-6.06 6.07-6.06h24.24M447.93 74.17h24.24c3.35 0 6.07 2.72 6.07 6.06v33.83M94.374 302.467h30.305M124.679 332.772H94.374M316.61 332.772v-30.305M256 302.467v-30.304M316.61 272.163v30.304" style="stroke-width:15;stroke-linecap:round;stroke-linejoin:round;stroke-miterlimit:10;" fill="none" stroke="#f76407" stroke-width="15" stroke-linecap="round" stroke-linejoin="round" stroke-miterlimit="10" data-original="#000000" opacity="1" class=""></path><path d="M447.931 60.028v303.049H64.069V60.028M64.069 7.5h383.862v52.528H64.069zM104.476 33.764h0M134.78 33.764h0M165.085 33.764h0" style="stroke-width:15;stroke-linecap:round;stroke-linejoin:round;stroke-miterlimit:10;" fill="none" stroke="#f76407" stroke-width="15" stroke-linecap="round" stroke-linejoin="round" stroke-miterlimit="10" data-original="#000000" opacity="1" class=""></path><path d="M357.02 203.12v38.74H154.98V94.37h202.04v73.75" style="stroke-width:15;stroke-linecap:round;stroke-linejoin:round;stroke-miterlimit:10;" fill="none" stroke="#f76407" stroke-width="15" stroke-linecap="round" stroke-linejoin="round" stroke-miterlimit="10" data-original="#000000" opacity="1" class=""></path><path d="M230.746 185.345v-34.458c0-6.007 6.322-9.915 11.695-7.228l34.458 17.229c5.956 2.978 5.956 11.478 0 14.456l-34.458 17.229c-5.373 2.687-11.695-1.221-11.695-7.228zM64.069 272.163h383.862M154.984 363.077v-90.914M447.931 302.467H154.984M447.931 332.772H154.984M214.88 272.163v90.914" style="stroke-width:15;stroke-linecap:round;stroke-linejoin:round;stroke-miterlimit:10;" fill="none" stroke="#f76407" stroke-width="15" stroke-linecap="round" stroke-linejoin="round" stroke-miterlimit="10" data-original="#000000" opacity="1" class=""></path></g></svg>