<svg xmlns="http://www.w3.org/2000/svg" version="1.1" xmlns:xlink="http://www.w3.org/1999/xlink" width="512" height="512" x="0" y="0" viewBox="0 0 682.667 682.667" style="enable-background:new 0 0 512 512" xml:space="preserve" class=""><g><defs><clipPath id="a" clipPathUnits="userSpaceOnUse"><path d="M0 512h512V0H0Z" fill="#f76407" opacity="1" data-original="#000000"></path></clipPath></defs><g clip-path="url(#a)" transform="matrix(1.33333 0 0 -1.33333 0 682.667)"><path d="M0 0a7.5 7.5 0 1 0-15 0A7.5 7.5 0 0 0 0 0" style="fill-opacity:1;fill-rule:nonzero;stroke:none" transform="translate(386.103 446.867)" fill="#f76407" data-original="#000000" opacity="1"></path><path d="M0 0a7.5 7.5 0 1 0-15 0A7.5 7.5 0 0 0 0 0" style="fill-opacity:1;fill-rule:nonzero;stroke:none" transform="translate(426.018 446.867)" fill="#f76407" data-original="#000000" opacity="1"></path><path d="M0 0a7.5 7.5 0 1 0-15 0A7.5 7.5 0 0 0 0 0" style="fill-opacity:1;fill-rule:nonzero;stroke:none" transform="translate(465.931 446.867)" fill="#f76407" data-original="#000000" opacity="1"></path><path d="m0 0-59.801 34.526c-6.907 3.988-15.541-.997-15.541-8.972v-69.053c0-7.975 8.634-12.96 15.541-8.972L0-17.945C6.907-13.957 6.907-3.988 0 0l-59.801 34.526c-6.907 3.988-15.541-.997-15.541-8.972v-69.053c0-7.975 8.634-12.96 15.541-8.972L0-17.945C6.907-13.957 6.907-3.988 0 0Z" style="stroke-width:15;stroke-linecap:round;stroke-linejoin:round;stroke-miterlimit:10;stroke-dasharray:none;stroke-opacity:1" transform="translate(291.58 253.806)" fill="none" stroke="#f76407" stroke-width="15" stroke-linecap="round" stroke-linejoin="round" stroke-miterlimit="10" stroke-dasharray="none" stroke-opacity="" data-original="#000000" class="" opacity="1"></path><path d="M0 0h-72.393A7.607 7.607 0 0 0-80 7.607v203.786A7.607 7.607 0 0 0-72.393 219h353.786a7.607 7.607 0 0 0 7.607-7.607V7.607A7.607 7.607 0 0 0 281.393 0H30" style="stroke-width:15;stroke-linecap:round;stroke-linejoin:round;stroke-miterlimit:10;stroke-dasharray:none;stroke-opacity:1" transform="translate(152 135.333)" fill="none" stroke="#f76407" stroke-width="15" stroke-linecap="round" stroke-linejoin="round" stroke-miterlimit="10" stroke-dasharray="none" stroke-opacity="" data-original="#000000" class="" opacity="1"></path><path d="M0 0h-2.31c-8.724 0-15.862 7.138-15.862 15.863v2.309c0 8.725 7.138 15.863 15.862 15.863H0c8.725 0 15.863-7.138 15.863-15.863v-2.309C15.863 7.138 8.725 0 0 0Z" style="stroke-width:15;stroke-linecap:round;stroke-linejoin:round;stroke-miterlimit:10;stroke-dasharray:none;stroke-opacity:1" transform="translate(110.155 66.405)" fill="none" stroke="#f76407" stroke-width="15" stroke-linecap="round" stroke-linejoin="round" stroke-miterlimit="10" stroke-dasharray="none" stroke-opacity="" data-original="#000000" class="" opacity="1"></path><path d="M0 0h314.018" style="stroke-width:15;stroke-linecap:round;stroke-linejoin:round;stroke-miterlimit:10;stroke-dasharray:none;stroke-opacity:1" transform="translate(126.982 83.423)" fill="none" stroke="#f76407" stroke-width="15" stroke-linecap="round" stroke-linejoin="round" stroke-miterlimit="10" stroke-dasharray="none" stroke-opacity="" data-original="#000000" class="" opacity="1"></path><path d="M0 0h19.982" style="stroke-width:15;stroke-linecap:round;stroke-linejoin:round;stroke-miterlimit:10;stroke-dasharray:none;stroke-opacity:1" transform="translate(72 83.423)" fill="none" stroke="#f76407" stroke-width="15" stroke-linecap="round" stroke-linejoin="round" stroke-miterlimit="10" stroke-dasharray="none" stroke-opacity="" data-original="#000000" class="" opacity="1"></path><path d="M0 0h289.59c15.616 0 28.276-12.66 28.276-28.276v-412.58c0-15.616-12.66-28.276-28.276-28.276h-440.448c-15.617 0-28.276 12.66-28.276 28.276v412.58C-179.134-12.66-166.475 0-150.858 0H-30" style="stroke-width:15;stroke-linecap:round;stroke-linejoin:round;stroke-miterlimit:10;stroke-dasharray:none;stroke-opacity:1" transform="translate(186.634 490.566)" fill="none" stroke="#f76407" stroke-width="15" stroke-linecap="round" stroke-linejoin="round" stroke-miterlimit="10" stroke-dasharray="none" stroke-opacity="" data-original="#000000" class="" opacity="1"></path><path d="M0 0h489.115" style="stroke-width:15;stroke-linecap:round;stroke-linejoin:round;stroke-miterlimit:10;stroke-dasharray:none;stroke-opacity:1" transform="translate(11.5 403.168)" fill="none" stroke="#f76407" stroke-width="15" stroke-linecap="round" stroke-linejoin="round" stroke-miterlimit="10" stroke-dasharray="none" stroke-opacity="" data-original="#000000" class="" opacity="1"></path></g></g></svg>