<svg xmlns="http://www.w3.org/2000/svg" version="1.1" xmlns:xlink="http://www.w3.org/1999/xlink" width="512" height="512" x="0" y="0" viewBox="0 0 479.958 479.958" style="enable-background:new 0 0 512 512" xml:space="preserve"><g><path d="M463.441 189.294a6.446 6.446 0 0 0-.216-.632c0-.088-.048-.192-.088-.28a7.966 7.966 0 0 0-1.424-1.96c-.128-.136-.288-.232-.424-.36a8.264 8.264 0 0 0-1.832-1.232c-.24-.112-.464-.224-.712-.312a7.913 7.913 0 0 0-2.768-.56H127.025l-2.104-2.624 103.216-32.408 1.256-.392 1.848-.576 99.2-31.152 21.048-6.608 31.152-9.776 75.736-23.768a8 8 0 0 0 5.232-10.031v-.001L444.441 5.558c-.048-.144-.16-.24-.216-.384a7.876 7.876 0 0 0-1.08-1.968c-.144-.192-.256-.4-.416-.576a2.295 2.295 0 0 0-.168-.224 7.727 7.727 0 0 0-1.92-1.44c-.184-.104-.392-.152-.584-.24a8.19 8.19 0 0 0-2.848-.704 7.772 7.772 0 0 0-2.808.304L210.849 70.502l-20.688 6.496-35.52 11.152-101.32 31.808H23.977a8 8 0 0 0-8 8v328c0 13.255 10.745 24 24 24h400c13.255 0 24-10.745 24-24v-264c0-.152-.08-.28-.088-.432a7.984 7.984 0 0 0-.448-2.232zm-23.464 10.664-36 48h-44l36-48h44zm-64 0-36 48h-44l36-48h44zm-64 0-36 48h-44l36-48h44zm-64 0-36 48h-44l36-48h44zm-64 0-36 48h-4v-40a7.999 7.999 0 0 0-1.752-5l-2.32-2.896 44.072-.104zm252.384-166.68 9.6 30.536-22.912 7.184 13.312-37.72zm-41.568-3.736 29.184-9.152-20 56.568-26.632 8.36-15.352 4.8 20-56.576 12.8-4zm-68.736 21.584 36.816-11.568-20 56.576-41.976 13.176 20-56.584 5.16-1.6zm-24.216 7.6-20 56.568-41.968 13.176 20-56.568 41.968-13.176zm-103.04 32.368 41.976-13.2-20 56.6-41.976 13.176 20-56.576zm-19.04 5.944-20 56.568-25.856 8.128-16.12 5.056 20-56.576 41.976-13.176zm-61.136 19.192-14.016 39.728-22.576-28.24 36.592-11.488zm-86.648 19.728h36.16l36.984 46.24 11.792 14.728 5.6 7.024.968 1.208 4.448 5.552v37.248H31.977v-112zm416 320a8 8 0 0 1-8 8h-400a8 8 0 0 1-8-8v-192h416v192zm0-208h-24l24-32v32z" fill="#f76407" opacity="1" data-original="#000000"></path><path d="M47.977 215.958h16v16h-16zM47.977 151.958h16v16h-16zM95.977 215.958h16v16h-16zM63.977 311.958h352v16h-352zM63.977 375.958v16h104v48h16v-48h112v48h16v-48h104v-16z" fill="#f76407" opacity="1" data-original="#000000"></path></g></svg>