<svg xmlns="http://www.w3.org/2000/svg" version="1.1" xmlns:xlink="http://www.w3.org/1999/xlink" width="512" height="512" x="0" y="0" viewBox="0 0 512 512" style="enable-background:new 0 0 512 512" xml:space="preserve" class=""><g><path d="M64.007 204.007c-14.337 0-25.999 11.663-25.999 25.999s11.663 25.999 25.999 25.999c14.337 0 25.999-11.663 25.999-25.999s-11.663-25.999-25.999-25.999zm0 31.999c-3.309 0-6-2.691-6-6s2.691-6 6-6 6 2.691 6 6-2.693 6-6 6z" fill="#f76407" opacity="1" data-original="#000000" class=""></path><path d="M477.997 172.008H373.198L348.06 90.076a10.002 10.002 0 0 0-9.561-7.066H173.503a10.003 10.003 0 0 0-9.561 7.066l-25.138 81.932H113.92v-21.999c0-5.522-4.478-10-10-10H47.922c-5.522 0-10 4.478-10 10v21.999h-3.917c-18.748 0-33.999 15.252-33.999 33.999v271.994C.006 496.748 15.258 512 34.005 512h443.99c18.748 0 33.999-15.252 33.999-33.999V206.007c.002-18.747-15.25-33.999-33.997-33.999zM180.895 103.01h150.214l21.169 68.998H159.726l21.169-68.998zM57.924 160.008h35.999v12H57.924v-12zm434.072 317.993c0 7.72-6.28 14-14 14h-6.25v-69.915c0-5.522-4.478-10-10-10s-10 4.478-10 10V492H34.007c-7.72 0-14-6.28-14-14V206.007c0-7.72 6.28-14 14-14h443.99c7.72 0 14 6.28 14 14v271.994z" fill="#f76407" opacity="1" data-original="#000000" class=""></path><path d="M128.046 331.254h-.04c-5.504 0-9.978 4.451-9.999 9.961l-.002.789c0 5.522 4.478 10 10 10s10-4.478 10-10l.002-.711c.021-5.522-4.438-10.018-9.961-10.039z" fill="#f76407" opacity="1" data-original="#000000" class=""></path><path d="M256.002 204.007c-28.764 0-56.331 8.765-79.721 25.344-22.868 16.211-40.072 38.621-49.753 64.807-1.915 5.18.732 10.932 5.913 12.847 5.177 1.914 10.931-.732 12.847-5.913 17.044-46.106 61.537-77.085 110.714-77.085 65.063 0 117.997 52.934 117.997 117.997s-52.934 117.997-117.997 117.997c-50.629 0-95.552-32.193-111.786-80.109-1.771-5.23-7.447-8.033-12.68-6.262-5.23 1.771-8.034 7.449-6.262 12.68 18.986 56.04 71.521 93.691 130.727 93.691 76.092 0 137.997-61.905 137.997-137.997s-61.904-137.997-137.996-137.997z" fill="#f76407" opacity="1" data-original="#000000" class=""></path><path d="M256.002 252.506c-49.35 0-89.498 40.148-89.498 89.498s40.148 89.498 89.498 89.498 89.498-40.148 89.498-89.498-40.148-89.498-89.498-89.498zm0 158.996c-38.321 0-69.498-31.177-69.498-69.498s31.177-69.498 69.498-69.498 69.498 31.177 69.498 69.498-31.177 69.498-69.498 69.498z" fill="#f76407" opacity="1" data-original="#000000" class=""></path><path d="M256.002 297.099c-24.761 0-44.905 20.145-44.905 44.905 0 5.522 4.477 10 10 10 5.522 0 10-4.478 10-10 0-13.733 11.173-24.905 24.905-24.905 5.522 0 10-4.478 10-10s-4.478-10-10-10zM449.997 220.007h-51.999c-5.522 0-10 4.478-10 10s4.478 10 10 10h51.999c5.522 0 10-4.478 10-10s-4.478-10-10-10zM256.002 0c-5.522 0-10 4.478-10 10v31.543c0 5.522 4.477 10 10 10 5.522 0 10-4.478 10-10V10c0-5.522-4.478-10-10-10zM323.974 36.508c-3.906-3.904-10.236-3.904-14.143 0L294.4 51.939c-3.905 3.905-3.905 10.237 0 14.143a9.973 9.973 0 0 0 7.072 2.929 9.97 9.97 0 0 0 7.071-2.929l15.431-15.431c3.905-3.905 3.905-10.237 0-14.143zM217.602 51.939l-15.43-15.43c-3.906-3.904-10.236-3.904-14.143 0-3.905 3.905-3.905 10.237 0 14.143l15.431 15.43c1.953 1.952 4.512 2.929 7.071 2.929s5.118-.977 7.071-2.929c3.905-3.905 3.905-10.237 0-14.143zM288.001 127.009h-63.999c-5.522 0-10 4.478-10 10s4.478 10 10 10h63.999c5.522 0 10-4.478 10-10s-4.478-10-10-10zM468.816 380.013a10.067 10.067 0 0 0-7.069-2.93c-2.63 0-5.21 1.069-7.07 2.93-1.86 1.87-2.93 4.44-2.93 7.07s1.069 5.21 2.93 7.069c1.86 1.87 4.44 2.931 7.07 2.931s5.21-1.07 7.069-2.931c1.86-1.859 2.931-4.439 2.931-7.069s-1.07-5.2-2.931-7.07z" fill="#f76407" opacity="1" data-original="#000000" class=""></path></g></svg>