<svg xmlns="http://www.w3.org/2000/svg" version="1.1" xmlns:xlink="http://www.w3.org/1999/xlink" width="512" height="512" x="0" y="0" viewBox="0 0 512 512" style="enable-background:new 0 0 512 512" xml:space="preserve"><g><path d="M459.762 238.358H256c-2.932 0-5.304 2.372-5.304 5.304s2.372 5.304 5.304 5.304h203.762c2.932 0 5.304-2.372 5.304-5.304s-2.373-5.304-5.304-5.304zM459.762 299.742H163.668c-2.932 0-5.304 2.372-5.304 5.304s2.372 5.304 5.304 5.304h296.094c2.932 0 5.304-2.372 5.304-5.304s-2.373-5.304-5.304-5.304zM459.762 361.131H163.668c-2.932 0-5.304 2.372-5.304 5.304s2.372 5.304 5.304 5.304h296.094c2.932 0 5.304-2.372 5.304-5.304s-2.373-5.304-5.304-5.304zM413.451 422.515H163.668c-2.932 0-5.304 2.372-5.304 5.304s2.372 5.304 5.304 5.304h249.783c2.932 0 5.304-2.372 5.304-5.304s-2.373-5.304-5.304-5.304z" fill="#f76407" opacity="1" data-original="#000000"></path><path d="M474.679 68.311H284.882V40.429c0-19.009-15.461-34.476-34.47-34.476H35.881c-19.009 0-34.47 15.466-34.47 34.476V157.39c0 19.009 15.461 34.47 34.47 34.47h76.964v278.276c0 19.802 16.109 35.91 35.91 35.91h325.923c19.802 0 35.91-16.109 35.91-35.91V104.221c.001-19.802-16.107-35.91-35.909-35.91zm0 10.608c13.954 0 25.303 11.349 25.303 25.303v61.208H283.896c.62-2.585.985-5.266.985-8.039V78.919zM12.018 157.39V40.429c0-13.161 10.706-23.868 23.863-23.868h214.53c13.156 0 23.863 10.706 23.863 23.868V157.39c0 13.156-10.706 23.863-23.863 23.863h-20.636a5.309 5.309 0 0 0-4.947 3.387l-15.544 40.101c-.222.574-1.043 2.86-4.511 3.087-.777 0-3.403-.223-4.511-3.092l-15.492-40.09a5.3 5.3 0 0 0-4.947-3.393H35.881c-13.156 0-23.863-10.707-23.863-23.863zm462.661 338.049H148.756c-13.954 0-25.303-11.349-25.303-25.303V191.861h52.734l14.182 36.698c5.084 13.17 23.718 13.163 28.809.016l14.228-36.713h17.005c12.115 0 22.77-6.295 28.918-15.772h220.652v294.048c.001 13.952-11.348 25.301-25.302 25.301z" fill="#f76407" opacity="1" data-original="#000000"></path><path d="M455.789 143.799c11.913 0 21.604-9.691 21.604-21.604 0-11.908-9.691-21.599-21.604-21.599-11.955 0-21.682 9.691-21.682 21.599 0 11.913 9.727 21.604 21.682 21.604zm0-32.596c6.065 0 10.996 4.931 10.996 10.991 0 6.065-4.931 10.996-10.996 10.996-6.107 0-11.074-4.931-11.074-10.996 0-6.06 4.967-10.991 11.074-10.991zM404.086 143.799c11.908 0 21.599-9.691 21.599-21.604 0-11.908-9.691-21.599-21.599-21.599-11.96 0-21.687 9.691-21.687 21.599 0 11.913 9.727 21.604 21.687 21.604zm0-32.596c6.06 0 10.991 4.931 10.991 10.991 0 6.065-4.931 10.996-10.991 10.996-6.107 0-11.079-4.931-11.079-10.996 0-6.06 4.972-10.991 11.079-10.991zM352.377 143.799c11.908 0 21.599-9.691 21.599-21.604 0-11.908-9.691-21.599-21.599-21.599-11.96 0-21.687 9.691-21.687 21.599 0 11.913 9.728 21.604 21.687 21.604zm0-32.596c6.06 0 10.991 4.931 10.991 10.991 0 6.065-4.931 10.996-10.991 10.996-6.107 0-11.079-4.931-11.079-10.996 0-6.06 4.973-10.991 11.079-10.991zM180.445 103.258c3.022-2.11 3.024-6.591 0-8.702l-68.527-47.839c-3.522-2.453-8.339.077-8.339 4.351v95.683c0 4.301 4.843 6.789 8.339 4.351zm-66.258-42.017 53.956 37.666-53.956 37.671z" fill="#f76407" opacity="1" data-original="#000000"></path></g></svg>