<svg xmlns="http://www.w3.org/2000/svg" version="1.1" xmlns:xlink="http://www.w3.org/1999/xlink" width="512" height="512" x="0" y="0" viewBox="0 0 512 512" style="enable-background:new 0 0 512 512" xml:space="preserve"><g><path d="M488 96h-32V48a8 8 0 0 0-8-8H272a8 8 0 0 0-8 8v112a8 8 0 0 0 8 8h64v16.577a24.063 24.063 0 0 0-18.417 18.716L313.441 224H280a24.027 24.027 0 0 0-24 24v57.223a88.489 88.489 0 0 0-17.396-6.675L176 281.854V251.88A88.563 88.563 0 0 0 206.506 200h17.727A23.794 23.794 0 0 0 248 176.234v-32.468a23.71 23.71 0 0 0-8-17.762V104a88.1 88.1 0 0 0-88-88h-32a88.1 88.1 0 0 0-88 88v22.003a23.71 23.71 0 0 0-8 17.763v32.468A23.793 23.793 0 0 0 47.766 200h17.728A88.563 88.563 0 0 0 96 251.88v29.974l-62.604 16.694a88.015 88.015 0 0 0-21.403 8.859l8.014 13.848a71.987 71.987 0 0 1 17.513-7.247L105.049 296h61.902l67.53 18.008a71.823 71.823 0 0 1 52.788 59.84l9.204 67.499L232 454.24V384h-16v112h16v-25.441l66.64-13.328 5.433 39.85 15.854-2.162-1.065-7.805L336 459.264V496h16v-96h16v96h16v-36.735l25.187 40.928 13.627-8.386L384 428.735V400h3.53l61.657 100.193 13.627-8.386L400 389.735V368h40a24.027 24.027 0 0 0 24-24v-8h24a8 8 0 0 0 8-8V104a8 8 0 0 0-8-8Zm-256 47.766v32.468a7.775 7.775 0 0 1-7.767 7.766H208v-48h16.233a7.775 7.775 0 0 1 7.767 7.766ZM64 184H47.766A7.775 7.775 0 0 1 40 176.234v-32.468A7.775 7.775 0 0 1 47.766 136H64Zm0-70.111V120H48v-16a72.081 72.081 0 0 1 72-72h32a72.081 72.081 0 0 1 72 72v16h-16v-6.111A65.963 65.963 0 0 0 142.111 48H129.89A65.963 65.963 0 0 0 64 113.889ZM160 280h-48v-24h48Zm5.245-40h-58.49A72.368 72.368 0 0 1 80 184v-70.111A49.945 49.945 0 0 1 129.889 64h12.222A49.945 49.945 0 0 1 192 113.889V184a72.368 72.368 0 0 1-26.755 56ZM280 152V56h160v96Zm88 16v16h-16v-16Zm-64.878 203.687a89.293 89.293 0 0 0-.588-3.687H320v21.735l-11.802 19.178ZM336 428.735l-20.546 33.387-3.848-28.217L332.471 400H336ZM384 384h-48v-16h48Zm64-40a8.01 8.01 0 0 1-8 8H298.08A87.672 87.672 0 0 0 272 315.72V248a8.01 8.01 0 0 1 8-8h40a8 8 0 0 0 7.845-6.431l5.427-27.138a8.021 8.021 0 0 1 7.845-6.431h37.766a8.021 8.021 0 0 1 7.845 6.431l5.427 27.138A8 8 0 0 0 399.98 240l40.039.096a8.013 8.013 0 0 1 7.981 8Zm32-24h-16v-71.904a24.052 24.052 0 0 0-16-22.62V216h-16v8.077l-25.438-.061-4.145-20.722A24.063 24.063 0 0 0 384 184.577V168h64a8 8 0 0 0 8-8v-48h24Z" fill="#f76407" opacity="1" data-original="#000000"></path><path d="m386.343 77.657 11.314-11.314 32 32-11.313 11.314zM346.343 77.657l11.314-11.314 64 64-11.314 11.314zM344 216h32v16h-32zM392 256h-96a8 8 0 0 0-8 8v64a8 8 0 0 0 8 8h96a8 8 0 0 0 8-8v-64a8 8 0 0 0-8-8Zm-8 64h-80v-48h80ZM416 256h16v16h-16zM416 288h16v16h-16zM416 320h16v16h-16zM40 454.241l-22.431-4.486-3.138 15.69L40 470.559V496h16V384H40v70.241z" fill="#f76407" opacity="1" data-original="#000000"></path></g></svg>